<?xml version="1.0" standalone="no"?>
<!DOCTYPE svg PUBLIC "-//W3C//DTD SVG 20010904//EN"
 "http://www.w3.org/TR/2001/REC-SVG-20010904/DTD/svg10.dtd">
<svg version="1.0" xmlns="http://www.w3.org/2000/svg"
 width="300.000000pt" height="159.000000pt" viewBox="0 0 300.000000 159.000000"
 preserveAspectRatio="xMidYMid meet">
<metadata>
Created by potrace 1.10, written by Peter Selinger 2001-2011
</metadata>
<g transform="translate(0.000000,159.000000) scale(0.100000,-0.100000)"
fill="#20c200" stroke="none">
<path d="M980 1403 c-151 -102 -281 -187 -287 -190 -10 -4 -13 18 -13 91 l0
96 -130 0 -130 0 0 -187 0 -188 -205 -135 c-112 -74 -205 -140 -205 -147 0 -6
4 -14 10 -18 5 -3 286 180 623 406 l614 412 628 -412 c537 -352 630 -410 642
-398 12 12 -53 58 -449 317 -255 166 -467 306 -472 310 -4 5 37 38 92 75 81
54 104 65 119 57 10 -6 275 -176 589 -380 489 -316 573 -366 581 -353 9 14
-79 75 -589 404 l-599 387 -119 -80 -119 -80 -143 93 c-79 51 -147 96 -153 99
-5 3 -134 -77 -285 -179z m-336 -135 l-2 -93 -78 -53 c-44 -29 -87 -58 -96
-63 -17 -9 -18 1 -18 146 l0 155 98 0 97 0 -1 -92z"/>
<path d="M1372 675 c-22 -9 -38 -27 -48 -51 -24 -58 -6 -95 81 -159 118 -88
140 -131 90 -180 -38 -39 -95 -35 -139 10 -22 22 -41 33 -51 29 -22 -9 -18
-27 13 -56 39 -37 65 -48 112 -48 74 0 140 53 140 114 0 48 -31 89 -117 153
-48 36 -82 69 -88 87 -8 25 -6 31 19 53 35 30 77 26 116 -12 23 -22 28 -24 45
-11 19 14 19 15 1 34 -43 48 -113 63 -174 37z"/>
<path d="M190 660 c0 -18 7 -20 55 -20 l55 0 0 -205 0 -205 25 0 25 0 0 205 0
205 55 0 c48 0 55 2 55 20 0 19 -7 20 -135 20 -128 0 -135 -1 -135 -20z"/>
<path d="M771 563 l79 -117 0 -108 0 -108 25 0 25 0 0 108 0 108 79 117 c78
116 79 117 51 117 -24 0 -36 -13 -90 -95 -34 -52 -64 -95 -65 -95 -1 0 -30 43
-66 95 -54 81 -68 95 -90 95 -26 0 -25 -3 52 -117z"/>
<path d="M1870 455 l0 -225 25 0 25 0 0 110 0 110 131 0 130 0 -3 -110 c-3
-108 -3 -110 20 -110 l22 0 0 225 0 225 -22 0 c-22 0 -23 -2 -20 -95 l3 -95
-130 0 -131 0 0 95 c0 95 0 95 -25 95 l-25 0 0 -225z"/>
<path d="M2652 660 c-6 -14 -48 -116 -95 -227 -78 -187 -83 -203 -63 -203 17
0 27 15 51 75 l30 76 88 -3 89 -3 30 -72 c23 -56 36 -73 50 -73 12 0 18 5 15
12 -41 103 -171 417 -177 428 -7 12 -11 10 -18 -10z m72 -218 c7 -21 5 -22
-63 -22 l-70 0 19 43 c10 23 26 60 35 82 l17 40 28 -61 c15 -33 31 -70 34 -82z"/>
<path d="M2664 81 c1 -30 6 -46 16 -48 10 -3 11 -2 3 4 -6 4 -13 26 -16 48 -4
40 -4 40 -3 -4z"/>
<path d="M2714 81 c1 -30 6 -46 16 -48 10 -3 11 -2 3 4 -6 4 -13 26 -16 48 -4
40 -4 40 -3 -4z"/>
<path d="M2504 85 c-13 -32 25 -70 47 -48 6 6 2 9 -13 9 -26 -1 -38 32 -16 45
10 7 10 9 0 9 -7 0 -15 -7 -18 -15z"/>
<path d="M2574 85 c-14 -37 26 -69 53 -42 16 16 10 57 -9 57 -7 0 -7 -5 1 -14
15 -18 3 -48 -18 -44 -20 4 -27 38 -9 49 10 7 10 9 0 9 -7 0 -15 -7 -18 -15z"/>
<path d="M2793 93 c4 -6 -5 -15 -19 -22 -32 -14 -26 -36 9 -37 23 -1 27 3 27
27 0 15 -5 31 -12 35 -6 4 -8 3 -5 -3z m7 -33 c0 -13 -28 -25 -38 -16 -3 4 0
11 8 16 20 13 30 12 30 0z"/>
<path d="M2835 90 c-3 -5 -4 -20 -1 -34 3 -14 0 -28 -5 -32 -11 -6 -3 -24 11
-24 5 0 7 7 4 15 -5 11 1 15 22 15 28 -1 28 -1 9 -16 -20 -16 -20 -16 0 -12
31 5 24 32 -10 38 l-30 6 26 7 c28 7 48 47 24 47 -7 0 -12 -8 -11 -17 0 -10
-6 -18 -14 -18 -8 0 -14 8 -14 18 2 19 -2 22 -11 7z"/>
<path d="M2914 86 c-14 -37 22 -74 47 -49 6 6 1 9 -13 9 -19 -1 -23 4 -23 27
1 30 -3 34 -11 13z"/>
<path d="M2953 85 c0 -8 4 -15 9 -15 4 0 8 4 8 9 0 6 -4 12 -8 15 -5 3 -9 -1
-9 -9z"/>
<path d="M395 63 c1053 -7 1835 -7 1835 0 0 4 -503 6 -1117 5 -615 -2 -938 -4
-718 -5z"/>
</g>
</svg>
